<svg xmlns="http://www.w3.org/2000/svg" width="168" height="168" viewBox="0 0 168 168">
<rect width="100%" height="100%" fill="white"/>
<rect x="24" y="24" width="20" height="20" fill="#8ecae6" opacity="0.75"/>
<rect x="44" y="44" width="20" height="20" fill="#8ecae6" opacity="0.75"/>
<rect x="64" y="44" width="20" height="20" fill="#8ecae6" opacity="0.75"/>
<rect x="84" y="44" width="20" height="20" fill="#8ecae6" opacity="0.75"/>
<rect x="104" y="64" width="20" height="20" fill="#8ecae6" opacity="0.75"/>
<rect x="124" y="124" width="20" height="20" fill="#8ecae6" opacity="0.75"/>
<rect x="124" y="104" width="20" height="20" fill="#8ecae6" opacity="0.75"/>
<rect x="124" y="84" width="20" height="20" fill="#8ecae6" opacity="0.75"/>
<line x1="24" y1="24" x2="24" y2="144" stroke="#999" stroke-width="1"/>
<line x1="24" y1="24" x2="144" y2="24" stroke="#999" stroke-width="1"/>
<line x1="44" y1="24" x2="44" y2="144" stroke="#999" stroke-width="1"/>
<line x1="24" y1="44" x2="144" y2="44" stroke="#999" stroke-width="1"/>
<line x1="64" y1="24" x2="64" y2="144" stroke="#999" stroke-width="1"/>
<line x1="24" y1="64" x2="144" y2="64" stroke="#999" stroke-width="1"/>
<line x1="84" y1="24" x2="84" y2="144" stroke="#999" stroke-width="1"/>
<line x1="24" y1="84" x2="144" y2="84" stroke="#999" stroke-width="1"/>
<line x1="104" y1="24" x2="104" y2="144" stroke="#999" stroke-width="1"/>
<line x1="24" y1="104" x2="144" y2="104" stroke="#999" stroke-width="1"/>
<line x1="124" y1="24" x2="124" y2="144" stroke="#999" stroke-width="1"/>
<line x1="24" y1="124" x2="144" y2="124" stroke="#999" stroke-width="1"/>
<line x1="144" y1="24" x2="144" y2="144" stroke="#999" stroke-width="1"/>
<line x1="24" y1="144" x2="144" y2="144" stroke="#999" stroke-width="1"/>
<rect x="24" y="24" width="120" height="120" fill="none" stroke="black" stroke-width="2"/>
</svg>